# xmcd
#
# Track frame offsets:
#	217
#	13390
#	28642
#	41187
#	54857
#	69112
#	79832
#	90370
#	103290
#	121295
#	132692
#	143755
#	154532
#	162810
#	174697
#	183482
#	195975
#	207737
#	216862
#	229992
#	239200
#
# Disc length: 3260 seconds
#
# Revision: 1
# Processed by: cddbd v1.4PL0 Copyright (c) Steve Scherf et al.
# Submitted via: audiograbber 1.80
#
DISCID=310cba15
DTITLE=Nat "King" Cole - Nat "King" Cole
DYEAR=1900
DGENRE=
TTITLE0=Route 66
TTITLE1=I'm Gonna Move To the Outskirts Of Town
TTITLE2=Thought You Ought To Know
TTITLE3=How Deep Is The Ocean
TTITLE4=The Frim Fram Sauce
TTITLE5=Little Joe From Chicago
TTITLE6=Wouldn't You Like To Know
TTITLE7=Besame Mucho
TTITLE8=Bacarolle
TTITLE9=Ont The Sunny Side Of The Street
TTITLE10=The Man I Love
TTITLE11=To Marvelous For Words
TTITLE12=Swinging The Blues
TTITLE13=That'll Just About Knock Me Out
TTITLE14=Indiana
TTITLE15=I'm Through With Love
TTITLE16=Is You Is Or Is You Ain't My Baby
TTITLE17=Solid Potato Salad
TTITLE18=I'm An Errand Bor For Rythym
TTITLE19=It's Almost Like Being In Love
TTITLE20=It's Only A Paper Moon
EXTD=
EXTT0=
EXTT1=
EXTT2=
EXTT3=
EXTT4=
EXTT5=
EXTT6=
EXTT7=
EXTT8=
EXTT9=
EXTT10=
EXTT11=
EXTT12=
EXTT13=
EXTT14=
EXTT15=
EXTT16=
EXTT17=
EXTT18=
EXTT19=
EXTT20=
PLAYORDER=
